<svg xmlns="http://www.w3.org/2000/svg" width="88" height="32" fill="none" viewBox="0 0 88 32">
  <path fill="#FCFBF8" d="M83.81 15.706c0 .248.132.436.38.588.249.152.609.284 1.08.416.36.096.684.188.949.264.284.096.568.248.852.416.303.188.532.416.7.72.151.284.228.644.228 1.024 0 .76-.304 1.344-.873 1.764-.588.416-1.308.644-2.163.644-.76 0-1.424-.172-1.972-.492a2.772 2.772 0 0 1-1.197-1.328l1.44-.852c.269.756.837 1.12 1.729 1.12.892 0 1.328-.284 1.328-.852 0-.436-.492-.756-1.48-1.004a9.743 9.743 0 0 1-.949-.284 6.918 6.918 0 0 1-.835-.396 1.895 1.895 0 0 1-.7-.7 2.124 2.124 0 0 1-.228-1.004c0-.72.267-1.288.816-1.724.551-.436 1.231-.664 2.027-.664a3.47 3.47 0 0 1 1.725.436c.492.284.891.68 1.156 1.196l-1.424.796c-.249-.604-.74-.888-1.46-.888-.32 0-.608.076-.816.208a.729.729 0 0 0-.32.604h.004l.004-.008Zm-8.936 1.1h4.573c-.112-.628-.38-1.08-.776-1.42a2.219 2.219 0 0 0-1.44-.492c-.628 0-1.14.172-1.556.512-.416.34-.684.796-.796 1.404l-.005-.004Zm6.205 1.36h-6.184c.112.568.4 1.024.852 1.344.436.32.984.472 1.632.472.871 0 1.555-.32 2.007-.948l1.385.796c-.76 1.136-1.897 1.704-3.416 1.704-1.252 0-2.276-.396-3.053-1.156-.776-.776-1.176-1.764-1.176-2.936s.4-2.12 1.156-2.9c.76-.796 1.745-1.196 2.96-1.196 1.12 0 2.048.416 2.788 1.212.74.796 1.1 1.764 1.1 2.9 0 .208-.02.436-.06.7l.009.008Zm-10.796-4.6v1.308c.436-.964 1.231-1.44 2.407-1.44v1.82a2.452 2.452 0 0 0-1.688.456c-.475.34-.724.912-.724 1.704v3.92h-1.672v-7.768h1.676Zm-9.525 5.664c.476.472 1.044.7 1.764.7s1.293-.228 1.744-.7c.477-.472.7-1.06.7-1.78s-.227-1.308-.7-1.764c-.456-.492-1.044-.72-1.744-.72s-1.291.228-1.764.72c-.476.456-.7 1.044-.7 1.764s.228 1.308.7 1.78Zm4.212-4.564v-1.1h1.689v7.768H64.97v-1.12c-.627.872-1.535 1.328-2.712 1.328-1.08 0-1.992-.396-2.752-1.196-.74-.776-1.12-1.744-1.12-2.9s.38-2.12 1.12-2.9c.76-.796 1.672-1.196 2.752-1.196 1.176 0 2.089.436 2.712 1.308v.008Zm-10.944-1.308c.912 0 1.632.304 2.164.872.553.568.817 1.344.817 2.332v4.772h-1.672V16.73c0-.568-.153-1.024-.477-1.328-.303-.32-.72-.472-1.271-.472-.605 0-1.08.188-1.44.568-.36.38-.532.928-.532 1.668v4.168h-1.672V10.458h1.672v4.112c.511-.796 1.328-1.212 2.407-1.212h.005Zm-9.66 2.348c0 .248.133.436.38.588.248.152.608.284 1.08.416.36.096.684.188.949.268.264.096.552.248.852.416.303.188.531.416.7.72.151.284.227.644.227 1.024 0 .756-.303 1.344-.872 1.764-.588.416-1.308.644-2.163.644-.776 0-1.425-.172-1.972-.492a2.79 2.79 0 0 1-1.197-1.328l1.44-.852c.269.76.837 1.12 1.729 1.12.892 0 1.328-.284 1.328-.852 0-.436-.492-.756-1.48-1.004a9.743 9.743 0 0 1-.948-.284 6.918 6.918 0 0 1-.836-.396 1.758 1.758 0 0 1-.7-.7 2.124 2.124 0 0 1-.229-1.004c0-.72.264-1.288.816-1.724.553-.436 1.217-.664 2.029-.664a3.47 3.47 0 0 1 1.723.436c.492.284.872.68 1.157 1.196l-1.424.796c-.264-.604-.74-.888-1.46-.888-.32 0-.604.076-.816.208a.729.729 0 0 0-.32.604h.003l.005-.012Zm-6.295-2.348c.912 0 1.632.304 2.18.872.532.568.816 1.344.816 2.332v4.772h-1.688V16.73c0-.568-.152-1.024-.456-1.328-.32-.32-.74-.472-1.293-.472-.604 0-1.08.188-1.44.568-.343.38-.532.928-.532 1.668v4.168h-1.672v-7.768h1.672v1.004c.532-.796 1.328-1.212 2.408-1.212h.005Zm-6.032 7.976h-1.673v-7.768h1.672v7.768Zm-9.52-2.104c.476.472 1.044.7 1.764.7s1.291-.228 1.743-.7c.477-.472.7-1.06.7-1.78s-.227-1.308-.7-1.764c-.456-.492-1.043-.72-1.744-.72-.7 0-1.291.228-1.764.72-.476.456-.7 1.044-.7 1.764s.229 1.308.7 1.78Zm4.208-4.564v-1.1h1.688v7.768h-1.688v-1.12c-.628.872-1.537 1.328-2.712 1.328-1.08 0-1.992-.396-2.753-1.196-.74-.776-1.12-1.744-1.12-2.9s.38-2.12 1.12-2.9c.76-.796 1.672-1.196 2.753-1.196 1.175 0 2.087.436 2.712 1.308v.008Zm-10.889-1.308c.873 0 1.597.304 2.124.872.36.38.605.852.72 1.44l-1.647.436a1.515 1.515 0 0 0-.345-.72c-.268-.304-.643-.456-1.1-.456-.531 0-.947.172-1.252.532-.303.344-.435.836-.455 1.48l-1.672.456v-.756c0-.552-.133-.964-.38-1.248-.268-.304-.628-.456-1.08-.456-.532 0-.948.188-1.252.532-.32.36-.472.852-.472 1.516v1.268l-1.688.456v-5.136h1.688v.928c.492-.76 1.232-1.136 2.22-1.136.988 0 1.723.416 2.2 1.232.512-.816 1.308-1.232 2.388-1.232l.003-.008Zm-6.81 7.973v-2.348l-1.684.452v1.896h1.684Zm3.185-3.198v3.2h1.669v-3.656l-1.668.456Zm4.878-1.308v4.508h1.688V16.52l-.016-.151-1.672.456Z"/>
  <path fill="#FCFBF8" d="M32.04 23h-1.668v7.332h-28.7V1.664h28.7v10.232h1.668V0H0v32h32.04v-9Z"/>
</svg>
