<svg width="16" height="17" viewBox="0 0 16 17" fill="none" xmlns="http://www.w3.org/2000/svg">
<g clip-path="url(#clip0_4432_597)">
<path d="M8.00464 1.94209C10.1421 1.94209 10.3953 1.95146 11.2359 1.98896C12.0171 2.02334 12.439 2.15459 12.7203 2.26397C13.0921 2.40771 13.3609 2.58272 13.639 2.86084C13.9203 3.14209 14.0921 3.40772 14.2359 3.77959C14.3453 4.06084 14.4765 4.48584 14.5109 5.26396C14.5484 6.10771 14.5578 6.36084 14.5578 8.49522C14.5578 10.6327 14.5484 10.8858 14.5109 11.7265C14.4765 12.5077 14.3453 12.9296 14.2359 13.2108C14.0921 13.5827 13.9171 13.8515 13.639 14.1296C13.3578 14.4108 13.0921 14.5827 12.7203 14.7265C12.439 14.8358 12.014 14.9671 11.2359 15.0015C10.3921 15.039 10.139 15.0483 8.00464 15.0483C5.86714 15.0483 5.61401 15.039 4.77339 15.0015C3.99214 14.9671 3.57026 14.8358 3.28901 14.7265C2.91714 14.5827 2.64839 14.4077 2.37026 14.1296C2.08901 13.8483 1.91714 13.5827 1.77339 13.2108C1.66401 12.9296 1.53276 12.5046 1.49839 11.7265C1.46089 10.8827 1.45151 10.6296 1.45151 8.49522C1.45151 6.35772 1.46089 6.10459 1.49839 5.26396C1.53276 4.48271 1.66401 4.06084 1.77339 3.77959C1.91714 3.40772 2.09214 3.13896 2.37026 2.86084C2.65151 2.57959 2.91714 2.40771 3.28901 2.26397C3.57026 2.15459 3.99526 2.02334 4.77339 1.98896C5.61401 1.95146 5.86714 1.94209 8.00464 1.94209ZM8.00464 0.501465C5.83276 0.501465 5.56089 0.51084 4.70776 0.54834C3.85776 0.58584 3.27339 0.72334 2.76714 0.920215C2.23901 1.12646 1.79214 1.39834 1.34839 1.84521C0.901514 2.28896 0.629639 2.73584 0.423389 3.26084C0.226514 3.77022 0.0890137 4.35146 0.0515137 5.20146C0.0140137 6.05771 0.00463867 6.32959 0.00463867 8.50146C0.00463867 10.6733 0.0140137 10.9452 0.0515137 11.7983C0.0890137 12.6483 0.226514 13.2327 0.423389 13.739C0.629639 14.2671 0.901514 14.714 1.34839 15.1577C1.79214 15.6015 2.23901 15.8765 2.76401 16.0796C3.27339 16.2765 3.85464 16.414 4.70464 16.4515C5.55776 16.489 5.82964 16.4983 8.00151 16.4983C10.1734 16.4983 10.4453 16.489 11.2984 16.4515C12.1484 16.414 12.7328 16.2765 13.239 16.0796C13.764 15.8765 14.2109 15.6015 14.6546 15.1577C15.0984 14.714 15.3734 14.2671 15.5765 13.7421C15.7734 13.2327 15.9109 12.6515 15.9484 11.8015C15.9859 10.9483 15.9953 10.6765 15.9953 8.50459C15.9953 6.33272 15.9859 6.06084 15.9484 5.20772C15.9109 4.35772 15.7734 3.77334 15.5765 3.26709C15.3796 2.73584 15.1078 2.28896 14.6609 1.84521C14.2171 1.40146 13.7703 1.12646 13.2453 0.92334C12.7359 0.726465 12.1546 0.588965 11.3046 0.551465C10.4484 0.51084 10.1765 0.501465 8.00464 0.501465Z" fill="#374140"/>
<path d="M8.00464 4.39209C5.73589 4.39209 3.89526 6.23272 3.89526 8.50146C3.89526 10.7702 5.73589 12.6108 8.00464 12.6108C10.2734 12.6108 12.114 10.7702 12.114 8.50146C12.114 6.23272 10.2734 4.39209 8.00464 4.39209ZM8.00464 11.1671C6.53276 11.1671 5.33901 9.97334 5.33901 8.50146C5.33901 7.02959 6.53276 5.83584 8.00464 5.83584C9.47651 5.83584 10.6703 7.02959 10.6703 8.50146C10.6703 9.97334 9.47651 11.1671 8.00464 11.1671Z" fill="#374140"/>
<path d="M13.2359 4.22988C13.2359 4.76113 12.8046 5.18926 12.2765 5.18926C11.7453 5.18926 11.3171 4.75801 11.3171 4.22988C11.3171 3.69863 11.7484 3.27051 12.2765 3.27051C12.8046 3.27051 13.2359 3.70176 13.2359 4.22988Z" fill="#374140"/>
</g>
<defs>
<clipPath id="clip0_4432_597">
<rect width="16" height="16" fill="white" transform="translate(0 0.5)"/>
</clipPath>
</defs>
</svg>
